<svg width="14" height="14" viewBox="0 0 14 14" fill="none" xmlns="http://www.w3.org/2000/svg">
<path d="M1.71768 2.80703L2.98682 1.53789C5.03643 -0.511719 8.35518 -0.511719 10.4013 1.53438L11.6704 2.80703C12.2048 3.34141 11.8251 4.25547 11.0692 4.25547H2.31885C1.56299 4.25547 1.1833 3.34141 1.71768 2.80703Z" fill="url(#paint0_linear_1_2483)"/>
<path d="M1.71768 2.80703L2.98682 1.53789C5.03643 -0.511719 8.35518 -0.511719 10.4013 1.53438L11.6704 2.80703C12.2048 3.34141 11.8251 4.25547 11.0692 4.25547H2.31885C1.56299 4.25547 1.1833 3.34141 1.71768 2.80703Z" fill="url(#paint1_linear_1_2483)"/>
<path d="M1.71768 2.80703L2.98682 1.53789C5.03643 -0.511719 8.35518 -0.511719 10.4013 1.53438L11.6704 2.80703C12.2048 3.34141 11.8251 4.25547 11.0692 4.25547H2.31885C1.56299 4.25547 1.1833 3.34141 1.71768 2.80703Z" fill="url(#paint2_linear_1_2483)"/>
<path d="M5.66572 0.78905C5.73174 0.78905 5.78525 0.735534 5.78525 0.669519C5.78525 0.603504 5.73174 0.549988 5.66572 0.549988C5.59971 0.549988 5.54619 0.603504 5.54619 0.669519C5.54619 0.735534 5.59971 0.78905 5.66572 0.78905Z" fill="url(#paint3_linear_1_2483)"/>
<path d="M5.42315 2.21639C5.48916 2.21639 5.54268 2.16287 5.54268 2.09686C5.54268 2.03084 5.48916 1.97733 5.42315 1.97733C5.35713 1.97733 5.30361 2.03084 5.30361 2.09686C5.30361 2.16287 5.35713 2.21639 5.42315 2.21639Z" fill="url(#paint4_linear_1_2483)"/>
<path d="M4.70947 1.08437C4.77549 1.08437 4.82901 1.03085 4.82901 0.964838C4.82901 0.898822 4.77549 0.845306 4.70947 0.845306C4.64346 0.845306 4.58994 0.898822 4.58994 0.964838C4.58994 1.03085 4.64346 1.08437 4.70947 1.08437Z" fill="url(#paint5_linear_1_2483)"/>
<path d="M8.11611 2.53984C8.18213 2.53984 8.23564 2.48633 8.23564 2.42031C8.23564 2.3543 8.18213 2.30078 8.11611 2.30078C8.0501 2.30078 7.99658 2.3543 7.99658 2.42031C7.99658 2.48633 8.0501 2.53984 8.11611 2.53984Z" fill="url(#paint6_linear_1_2483)"/>
<path d="M7.42002 0.841785C7.48604 0.841785 7.53955 0.788269 7.53955 0.722253C7.53955 0.656238 7.48604 0.602722 7.42002 0.602722C7.35401 0.602722 7.30049 0.656238 7.30049 0.722253C7.30049 0.788269 7.35401 0.841785 7.42002 0.841785Z" fill="url(#paint7_linear_1_2483)"/>
<path d="M7.42002 2.33943C7.48604 2.33943 7.53955 2.28592 7.53955 2.2199C7.53955 2.15389 7.48604 2.10037 7.42002 2.10037C7.35401 2.10037 7.30049 2.15389 7.30049 2.2199C7.30049 2.28592 7.35401 2.33943 7.42002 2.33943Z" fill="url(#paint8_linear_1_2483)"/>
<path d="M9.18135 1.20391C9.24736 1.20391 9.30088 1.15039 9.30088 1.08438C9.30088 1.01836 9.24736 0.964844 9.18135 0.964844C9.11533 0.964844 9.06182 1.01836 9.06182 1.08438C9.06182 1.15039 9.11533 1.20391 9.18135 1.20391Z" fill="url(#paint9_linear_1_2483)"/>
<path d="M6.45322 1.59413C6.51924 1.59413 6.57276 1.54062 6.57276 1.4746C6.57276 1.40859 6.51924 1.35507 6.45322 1.35507C6.38721 1.35507 6.33369 1.40859 6.33369 1.4746C6.33369 1.54062 6.38721 1.59413 6.45322 1.59413Z" fill="url(#paint10_linear_1_2483)"/>
<path d="M9.76143 2.01952C9.82744 2.01952 9.88096 1.966 9.88096 1.89999C9.88096 1.83397 9.82744 1.78046 9.76143 1.78046C9.69541 1.78046 9.6419 1.83397 9.6419 1.89999C9.6419 1.966 9.69541 2.01952 9.76143 2.01952Z" fill="url(#paint11_linear_1_2483)"/>
<path d="M3.50361 2.09685C3.56963 2.09685 3.62315 2.04333 3.62315 1.97732C3.62315 1.9113 3.56963 1.85779 3.50361 1.85779C3.4376 1.85779 3.38408 1.9113 3.38408 1.97732C3.38408 2.04333 3.4376 2.09685 3.50361 2.09685Z" fill="url(#paint12_linear_1_2483)"/>
<path d="M13.0626 8.95584L12.1802 7.08904C11.8603 6.41404 11.7899 5.58435 11.9903 4.83201C12.131 4.30466 11.6669 3.80896 11.129 3.92146L8.34111 4.49099C7.25127 4.71248 6.12979 4.71248 5.03994 4.49099L2.25205 3.92146C1.72119 3.81248 1.25713 4.30466 1.39775 4.83201C1.59815 5.58435 1.52783 6.41052 1.20791 7.08904L0.329005 8.95584C-0.247558 10.1793 -0.0506828 11.7719 0.796583 12.6929C0.989942 12.9004 1.23252 13.0164 1.48213 13.0164H11.913C12.1626 13.0164 12.4052 12.9004 12.5985 12.6929C13.4423 11.7683 13.6392 10.1793 13.0626 8.95584Z" fill="url(#paint13_linear_1_2483)"/>
<path d="M12.9466 8.71326H0.441505L1.20791 7.08904C1.4083 6.66716 1.51026 6.18552 1.51026 5.70037C1.51026 5.40857 1.4751 5.11677 1.39776 4.83201C1.25713 4.30466 1.72119 3.80896 2.25908 3.92146L5.04697 4.49099C6.13682 4.71248 7.2583 4.71248 8.34815 4.49099L11.136 3.92146C11.6071 3.82654 12.022 4.19216 12.022 4.64216C12.022 4.70545 12.0149 4.76873 11.9974 4.83552C11.797 5.58787 11.8673 6.41404 12.1872 7.09255L12.9466 8.71326Z" fill="url(#paint14_linear_1_2483)"/>
<path d="M12.1802 7.08904C11.8603 6.41404 11.7899 5.58435 11.9903 4.83201C12.131 4.30466 11.6669 3.80896 11.129 3.92146L8.34111 4.49099C7.65205 4.63162 6.94893 4.68435 6.24932 4.64568V13.0164H11.906C12.1556 13.0164 12.3981 12.9004 12.5915 12.6929C13.4388 11.7719 13.6356 10.1793 13.0591 8.95584L12.1802 7.08904Z" fill="url(#paint15_linear_1_2483)"/>
<path d="M13.3896 10.559C13.4036 10.0105 13.2981 9.45155 13.0626 8.95233L12.3981 7.54608H10.3767L13.3896 10.559Z" fill="url(#paint16_linear_1_2483)"/>
<path d="M12.1485 2.75429C12.1485 2.75077 12.1485 2.75077 12.1485 2.74726C12.1485 2.4414 11.8497 2.22343 11.5614 2.3289C10.2677 2.79999 8.5626 3.08827 6.6958 3.08827C4.829 3.08827 3.12393 2.79999 1.83018 2.32538C1.54189 2.21991 1.23955 2.43788 1.24307 2.74374V2.75077C1.24307 3.14101 1.15518 3.50311 1.004 3.82304C0.747363 4.35741 0.98291 4.99374 1.53135 5.21874C2.85674 5.76015 4.68135 6.09413 6.69932 6.09413C8.71729 6.09413 10.5419 5.76015 11.8673 5.21874C12.4157 4.99374 12.6513 4.35741 12.3946 3.82304C12.2364 3.50663 12.1485 3.14101 12.1485 2.75429Z" fill="url(#paint17_linear_1_2483)"/>
<path d="M12.1485 2.75429C12.1485 2.75077 12.1485 2.75077 12.1485 2.74726C12.1485 2.4414 11.8497 2.22343 11.5614 2.3289C10.2677 2.79999 8.5626 3.08827 6.6958 3.08827C4.829 3.08827 3.12393 2.79999 1.83018 2.32538C1.54189 2.21991 1.23955 2.43788 1.24307 2.74374V2.75077C1.24307 3.14101 1.15518 3.50311 1.004 3.82304C0.747363 4.35741 0.98291 4.99374 1.53135 5.21874C2.85674 5.76015 4.68135 6.09413 6.69932 6.09413C8.71729 6.09413 10.5419 5.76015 11.8673 5.21874C12.4157 4.99374 12.6513 4.35741 12.3946 3.82304C12.2364 3.50663 12.1485 3.14101 12.1485 2.75429Z" fill="url(#paint18_linear_1_2483)"/>
<path d="M12.1485 2.75429C12.1485 2.75077 12.1485 2.75077 12.1485 2.74726C12.1485 2.4414 11.8497 2.22343 11.5614 2.3289C10.2677 2.79999 8.5626 3.08827 6.6958 3.08827C4.829 3.08827 3.12393 2.79999 1.83018 2.32538C1.54189 2.21991 1.23955 2.43788 1.24307 2.74374V2.75077C1.24307 3.14101 1.15518 3.50311 1.004 3.82304C0.747363 4.35741 0.98291 4.99374 1.53135 5.21874C2.85674 5.76015 4.68135 6.09413 6.69932 6.09413C8.71729 6.09413 10.5419 5.76015 11.8673 5.21874C12.4157 4.99374 12.6513 4.35741 12.3946 3.82304C12.2364 3.50663 12.1485 3.14101 12.1485 2.75429Z" fill="url(#paint19_linear_1_2483)"/>
<path d="M0.905567 4.14999C2.39619 4.75116 4.44229 5.12382 6.6958 5.12382C8.95283 5.12382 10.9954 4.75116 12.486 4.14999C12.472 4.04101 12.4403 3.93202 12.3911 3.82655C12.2364 3.51015 12.1521 3.14452 12.1521 2.75429C12.1521 2.75077 12.1521 2.75077 12.1521 2.74726C12.1521 2.4414 11.8532 2.22343 11.5649 2.3289C10.2712 2.79999 8.56611 3.08827 6.69932 3.08827C4.83252 3.08827 3.12393 2.79999 1.83018 2.32538C1.5419 2.21991 1.23955 2.43788 1.24307 2.74374V2.75077C1.24307 3.14101 1.15518 3.50311 1.004 3.82304C0.947755 3.92851 0.91963 4.03749 0.905567 4.14999Z" fill="url(#paint20_linear_1_2483)"/>
<path d="M12.1485 2.74726C12.1485 2.4414 11.8497 2.22343 11.5614 2.3289C10.2677 2.79999 8.5626 3.08827 6.6958 3.08827C4.829 3.08827 3.12392 2.79999 1.83017 2.32538C1.54189 2.21991 1.23955 2.43788 1.24307 2.74374V2.75077C1.24307 2.94061 1.22197 3.11991 1.1833 3.29569C2.6458 3.83358 4.57939 4.16054 6.6958 4.16054C8.81572 4.16054 10.7458 3.83358 12.2083 3.29569C12.1696 3.11991 12.1485 2.94061 12.1485 2.75077V2.74726Z" fill="url(#paint21_linear_1_2483)"/>
<path d="M12.1485 2.75428C12.1485 2.75076 12.1485 2.75076 12.1485 2.74725C12.1485 2.44139 11.8497 2.22342 11.5614 2.32889C10.5454 2.69803 9.27627 2.95467 7.87354 3.04959V6.05897C9.42041 5.95701 10.8021 5.65467 11.8638 5.22225C12.4122 4.99725 12.6478 4.36092 12.3911 3.82655C12.2364 3.50662 12.1485 3.141 12.1485 2.75428Z" fill="url(#paint22_linear_1_2483)"/>
<path d="M0.329005 8.95583C-0.247558 10.1793 -0.0506828 11.7719 0.796583 12.6929C0.989942 12.9004 1.23252 13.0164 1.48213 13.0164H11.913C12.1626 13.0164 12.4052 12.9004 12.5985 12.6929C13.4458 11.7719 13.6427 10.1793 13.0661 8.95583L12.9501 8.71326H0.441505L0.329005 8.95583Z" fill="url(#paint23_linear_1_2483)"/>
<path d="M10.2255 13.0129L7.90869 10.6961H7.46572V13.0129H10.2255Z" fill="url(#paint24_linear_1_2483)"/>
<defs>
<linearGradient id="paint0_linear_1_2483" x1="4.38031" y1="-0.484156" x2="6.88649" y2="3.72623" gradientUnits="userSpaceOnUse">
<stop stop-color="#F5FBFF"/>
<stop offset="0.2414" stop-color="#F0F8FE"/>
<stop offset="0.4916" stop-color="#E4F2FE"/>
<stop offset="0.7457" stop-color="#CFE8FE"/>
<stop offset="1" stop-color="#B3DAFE"/>
</linearGradient>
<linearGradient id="paint1_linear_1_2483" x1="6.93423" y1="2.42471" x2="6.63347" y2="3.65275" gradientUnits="userSpaceOnUse">
<stop stop-color="#8AC9FE" stop-opacity="0"/>
<stop offset="0.1291" stop-color="#89C8FD" stop-opacity="0.019"/>
<stop offset="0.2629" stop-color="#88C6FB" stop-opacity="0.075"/>
<stop offset="0.3989" stop-color="#87C4F8" stop-opacity="0.168"/>
<stop offset="0.5365" stop-color="#85C0F4" stop-opacity="0.298"/>
<stop offset="0.6753" stop-color="#83BBEF" stop-opacity="0.466"/>
<stop offset="0.8151" stop-color="#7FB5E9" stop-opacity="0.672"/>
<stop offset="0.9532" stop-color="#7CAEE1" stop-opacity="0.911"/>
<stop offset="1" stop-color="#7BACDF"/>
</linearGradient>
<linearGradient id="paint2_linear_1_2483" x1="6.29196" y1="1.69873" x2="6.74309" y2="3.60343" gradientUnits="userSpaceOnUse">
<stop stop-color="#8AC9FE" stop-opacity="0"/>
<stop offset="0.1291" stop-color="#89C8FD" stop-opacity="0.019"/>
<stop offset="0.2629" stop-color="#88C6FB" stop-opacity="0.075"/>
<stop offset="0.3989" stop-color="#87C4F8" stop-opacity="0.168"/>
<stop offset="0.5365" stop-color="#85C0F4" stop-opacity="0.298"/>
<stop offset="0.6753" stop-color="#83BBEF" stop-opacity="0.466"/>
<stop offset="0.8151" stop-color="#7FB5E9" stop-opacity="0.672"/>
<stop offset="0.9532" stop-color="#7CAEE1" stop-opacity="0.911"/>
<stop offset="1" stop-color="#7BACDF"/>
</linearGradient>
<linearGradient id="paint3_linear_1_2483" x1="3.30705" y1="-1.69196" x2="6.44025" y2="1.44124" gradientUnits="userSpaceOnUse">
<stop stop-color="#8AC9FE" stop-opacity="0"/>
<stop offset="0.1291" stop-color="#89C8FD" stop-opacity="0.019"/>
<stop offset="0.2629" stop-color="#88C6FB" stop-opacity="0.075"/>
<stop offset="0.3989" stop-color="#87C4F8" stop-opacity="0.168"/>
<stop offset="0.5365" stop-color="#85C0F4" stop-opacity="0.298"/>
<stop offset="0.6753" stop-color="#83BBEF" stop-opacity="0.466"/>
<stop offset="0.8151" stop-color="#7FB5E9" stop-opacity="0.672"/>
<stop offset="0.9532" stop-color="#7CAEE1" stop-opacity="0.911"/>
<stop offset="1" stop-color="#7BACDF"/>
</linearGradient>
<linearGradient id="paint4_linear_1_2483" x1="3.06479" y1="-0.261704" x2="6.19799" y2="2.87149" gradientUnits="userSpaceOnUse">
<stop stop-color="#8AC9FE" stop-opacity="0"/>
<stop offset="0.1291" stop-color="#89C8FD" stop-opacity="0.019"/>
<stop offset="0.2629" stop-color="#88C6FB" stop-opacity="0.075"/>
<stop offset="0.3989" stop-color="#87C4F8" stop-opacity="0.168"/>
<stop offset="0.5365" stop-color="#85C0F4" stop-opacity="0.298"/>
<stop offset="0.6753" stop-color="#83BBEF" stop-opacity="0.466"/>
<stop offset="0.8151" stop-color="#7FB5E9" stop-opacity="0.672"/>
<stop offset="0.9532" stop-color="#7CAEE1" stop-opacity="0.911"/>
<stop offset="1" stop-color="#7BACDF"/>
</linearGradient>
<linearGradient id="paint5_linear_1_2483" x1="2.35053" y1="-1.3951" x2="5.48373" y2="1.73809" gradientUnits="userSpaceOnUse">
<stop stop-color="#8AC9FE" stop-opacity="0"/>
<stop offset="0.1291" stop-color="#89C8FD" stop-opacity="0.019"/>
<stop offset="0.2629" stop-color="#88C6FB" stop-opacity="0.075"/>
<stop offset="0.3989" stop-color="#87C4F8" stop-opacity="0.168"/>
<stop offset="0.5365" stop-color="#85C0F4" stop-opacity="0.298"/>
<stop offset="0.6753" stop-color="#83BBEF" stop-opacity="0.466"/>
<stop offset="0.8151" stop-color="#7FB5E9" stop-opacity="0.672"/>
<stop offset="0.9532" stop-color="#7CAEE1" stop-opacity="0.911"/>
<stop offset="1" stop-color="#7BACDF"/>
</linearGradient>
<linearGradient id="paint6_linear_1_2483" x1="5.75667" y1="0.0609404" x2="8.88987" y2="3.19414" gradientUnits="userSpaceOnUse">
<stop stop-color="#8AC9FE" stop-opacity="0"/>
<stop offset="0.1291" stop-color="#89C8FD" stop-opacity="0.019"/>
<stop offset="0.2629" stop-color="#88C6FB" stop-opacity="0.075"/>
<stop offset="0.3989" stop-color="#87C4F8" stop-opacity="0.168"/>
<stop offset="0.5365" stop-color="#85C0F4" stop-opacity="0.298"/>
<stop offset="0.6753" stop-color="#83BBEF" stop-opacity="0.466"/>
<stop offset="0.8151" stop-color="#7FB5E9" stop-opacity="0.672"/>
<stop offset="0.9532" stop-color="#7CAEE1" stop-opacity="0.911"/>
<stop offset="1" stop-color="#7BACDF"/>
</linearGradient>
<linearGradient id="paint7_linear_1_2483" x1="5.05896" y1="-1.63736" x2="8.19216" y2="1.49583" gradientUnits="userSpaceOnUse">
<stop stop-color="#8AC9FE" stop-opacity="0"/>
<stop offset="0.1291" stop-color="#89C8FD" stop-opacity="0.019"/>
<stop offset="0.2629" stop-color="#88C6FB" stop-opacity="0.075"/>
<stop offset="0.3989" stop-color="#87C4F8" stop-opacity="0.168"/>
<stop offset="0.5365" stop-color="#85C0F4" stop-opacity="0.298"/>
<stop offset="0.6753" stop-color="#83BBEF" stop-opacity="0.466"/>
<stop offset="0.8151" stop-color="#7FB5E9" stop-opacity="0.672"/>
<stop offset="0.9532" stop-color="#7CAEE1" stop-opacity="0.911"/>
<stop offset="1" stop-color="#7BACDF"/>
</linearGradient>
<linearGradient id="paint8_linear_1_2483" x1="5.05896" y1="-0.140591" x2="8.19215" y2="2.99261" gradientUnits="userSpaceOnUse">
<stop stop-color="#8AC9FE" stop-opacity="0"/>
<stop offset="0.1291" stop-color="#89C8FD" stop-opacity="0.019"/>
<stop offset="0.2629" stop-color="#88C6FB" stop-opacity="0.075"/>
<stop offset="0.3989" stop-color="#87C4F8" stop-opacity="0.168"/>
<stop offset="0.5365" stop-color="#85C0F4" stop-opacity="0.298"/>
<stop offset="0.6753" stop-color="#83BBEF" stop-opacity="0.466"/>
<stop offset="0.8151" stop-color="#7FB5E9" stop-opacity="0.672"/>
<stop offset="0.9532" stop-color="#7CAEE1" stop-opacity="0.911"/>
<stop offset="1" stop-color="#7BACDF"/>
</linearGradient>
<linearGradient id="paint9_linear_1_2483" x1="6.82014" y1="-1.27398" x2="9.95334" y2="1.85923" gradientUnits="userSpaceOnUse">
<stop stop-color="#8AC9FE" stop-opacity="0"/>
<stop offset="0.1291" stop-color="#89C8FD" stop-opacity="0.019"/>
<stop offset="0.2629" stop-color="#88C6FB" stop-opacity="0.075"/>
<stop offset="0.3989" stop-color="#87C4F8" stop-opacity="0.168"/>
<stop offset="0.5365" stop-color="#85C0F4" stop-opacity="0.298"/>
<stop offset="0.6753" stop-color="#83BBEF" stop-opacity="0.466"/>
<stop offset="0.8151" stop-color="#7FB5E9" stop-opacity="0.672"/>
<stop offset="0.9532" stop-color="#7CAEE1" stop-opacity="0.911"/>
<stop offset="1" stop-color="#7BACDF"/>
</linearGradient>
<linearGradient id="paint10_linear_1_2483" x1="4.0941" y1="-0.885507" x2="7.22726" y2="2.24769" gradientUnits="userSpaceOnUse">
<stop stop-color="#8AC9FE" stop-opacity="0"/>
<stop offset="0.1291" stop-color="#89C8FD" stop-opacity="0.019"/>
<stop offset="0.2629" stop-color="#88C6FB" stop-opacity="0.075"/>
<stop offset="0.3989" stop-color="#87C4F8" stop-opacity="0.168"/>
<stop offset="0.5365" stop-color="#85C0F4" stop-opacity="0.298"/>
<stop offset="0.6753" stop-color="#83BBEF" stop-opacity="0.466"/>
<stop offset="0.8151" stop-color="#7FB5E9" stop-opacity="0.672"/>
<stop offset="0.9532" stop-color="#7CAEE1" stop-opacity="0.911"/>
<stop offset="1" stop-color="#7BACDF"/>
</linearGradient>
<linearGradient id="paint11_linear_1_2483" x1="7.40226" y1="-0.458293" x2="10.5354" y2="2.67491" gradientUnits="userSpaceOnUse">
<stop stop-color="#8AC9FE" stop-opacity="0"/>
<stop offset="0.1291" stop-color="#89C8FD" stop-opacity="0.019"/>
<stop offset="0.2629" stop-color="#88C6FB" stop-opacity="0.075"/>
<stop offset="0.3989" stop-color="#87C4F8" stop-opacity="0.168"/>
<stop offset="0.5365" stop-color="#85C0F4" stop-opacity="0.298"/>
<stop offset="0.6753" stop-color="#83BBEF" stop-opacity="0.466"/>
<stop offset="0.8151" stop-color="#7FB5E9" stop-opacity="0.672"/>
<stop offset="0.9532" stop-color="#7CAEE1" stop-opacity="0.911"/>
<stop offset="1" stop-color="#7BACDF"/>
</linearGradient>
<linearGradient id="paint12_linear_1_2483" x1="1.14365" y1="-0.382859" x2="4.27684" y2="2.75033" gradientUnits="userSpaceOnUse">
<stop stop-color="#8AC9FE" stop-opacity="0"/>
<stop offset="0.1291" stop-color="#89C8FD" stop-opacity="0.019"/>
<stop offset="0.2629" stop-color="#88C6FB" stop-opacity="0.075"/>
<stop offset="0.3989" stop-color="#87C4F8" stop-opacity="0.168"/>
<stop offset="0.5365" stop-color="#85C0F4" stop-opacity="0.298"/>
<stop offset="0.6753" stop-color="#83BBEF" stop-opacity="0.466"/>
<stop offset="0.8151" stop-color="#7FB5E9" stop-opacity="0.672"/>
<stop offset="0.9532" stop-color="#7CAEE1" stop-opacity="0.911"/>
<stop offset="1" stop-color="#7BACDF"/>
</linearGradient>
<linearGradient id="paint13_linear_1_2483" x1="1.05526" y1="6.83155" x2="11.3267" y2="9.97586" gradientUnits="userSpaceOnUse">
<stop stop-color="#F6A96C"/>
<stop offset="0.3561" stop-color="#F1A468"/>
<stop offset="0.7245" stop-color="#E5985F"/>
<stop offset="1" stop-color="#D88A55"/>
</linearGradient>
<linearGradient id="paint14_linear_1_2483" x1="6.69513" y1="7.43645" x2="6.69513" y2="5.07821" gradientUnits="userSpaceOnUse">
<stop stop-color="#BB5D4C" stop-opacity="0"/>
<stop offset="0.1413" stop-color="#BB5D4C" stop-opacity="0.022"/>
<stop offset="0.2877" stop-color="#BB5D4C" stop-opacity="0.089"/>
<stop offset="0.4366" stop-color="#BB5D4C" stop-opacity="0.2"/>
<stop offset="0.5872" stop-color="#BB5D4C" stop-opacity="0.355"/>
<stop offset="0.739" stop-color="#BB5D4C" stop-opacity="0.556"/>
<stop offset="0.8898" stop-color="#BB5D4C" stop-opacity="0.797"/>
<stop offset="1" stop-color="#BB5D4C"/>
</linearGradient>
<linearGradient id="paint15_linear_1_2483" x1="10.6439" y1="8.49771" x2="12.9236" y2="7.99987" gradientUnits="userSpaceOnUse">
<stop stop-color="#BB5D4C" stop-opacity="0"/>
<stop offset="0.1413" stop-color="#BB5D4C" stop-opacity="0.022"/>
<stop offset="0.2877" stop-color="#BB5D4C" stop-opacity="0.089"/>
<stop offset="0.4366" stop-color="#BB5D4C" stop-opacity="0.2"/>
<stop offset="0.5872" stop-color="#BB5D4C" stop-opacity="0.355"/>
<stop offset="0.739" stop-color="#BB5D4C" stop-opacity="0.556"/>
<stop offset="0.8898" stop-color="#BB5D4C" stop-opacity="0.797"/>
<stop offset="1" stop-color="#BB5D4C"/>
</linearGradient>
<linearGradient id="paint16_linear_1_2483" x1="11.8154" y1="9.62322" x2="12.0351" y2="7.82543" gradientUnits="userSpaceOnUse">
<stop stop-color="#BB5D4C" stop-opacity="0"/>
<stop offset="0.1413" stop-color="#BB5D4C" stop-opacity="0.022"/>
<stop offset="0.2877" stop-color="#BB5D4C" stop-opacity="0.089"/>
<stop offset="0.4366" stop-color="#BB5D4C" stop-opacity="0.2"/>
<stop offset="0.5872" stop-color="#BB5D4C" stop-opacity="0.355"/>
<stop offset="0.739" stop-color="#BB5D4C" stop-opacity="0.556"/>
<stop offset="0.8898" stop-color="#BB5D4C" stop-opacity="0.797"/>
<stop offset="1" stop-color="#BB5D4C"/>
</linearGradient>
<linearGradient id="paint17_linear_1_2483" x1="6.69513" y1="3.0213" x2="6.69513" y2="5.9952" gradientUnits="userSpaceOnUse">
<stop stop-color="#F6A96C"/>
<stop offset="0.3561" stop-color="#F1A468"/>
<stop offset="0.7245" stop-color="#E5985F"/>
<stop offset="1" stop-color="#D88A55"/>
</linearGradient>
<linearGradient id="paint18_linear_1_2483" x1="6.83593" y1="4.95792" x2="7.15037" y2="6.47765" gradientUnits="userSpaceOnUse">
<stop stop-color="#BB5D4C" stop-opacity="0"/>
<stop offset="0.1413" stop-color="#BB5D4C" stop-opacity="0.022"/>
<stop offset="0.2877" stop-color="#BB5D4C" stop-opacity="0.089"/>
<stop offset="0.4366" stop-color="#BB5D4C" stop-opacity="0.2"/>
<stop offset="0.5872" stop-color="#BB5D4C" stop-opacity="0.355"/>
<stop offset="0.739" stop-color="#BB5D4C" stop-opacity="0.556"/>
<stop offset="0.8898" stop-color="#BB5D4C" stop-opacity="0.797"/>
<stop offset="1" stop-color="#BB5D4C"/>
</linearGradient>
<linearGradient id="paint19_linear_1_2483" x1="6.69007" y1="4.38023" x2="6.58527" y2="6.51136" gradientUnits="userSpaceOnUse">
<stop stop-color="#BB5D4C" stop-opacity="0"/>
<stop offset="0.1413" stop-color="#BB5D4C" stop-opacity="0.022"/>
<stop offset="0.2877" stop-color="#BB5D4C" stop-opacity="0.089"/>
<stop offset="0.4366" stop-color="#BB5D4C" stop-opacity="0.2"/>
<stop offset="0.5872" stop-color="#BB5D4C" stop-opacity="0.355"/>
<stop offset="0.739" stop-color="#BB5D4C" stop-opacity="0.556"/>
<stop offset="0.8898" stop-color="#BB5D4C" stop-opacity="0.797"/>
<stop offset="1" stop-color="#BB5D4C"/>
</linearGradient>
<linearGradient id="paint20_linear_1_2483" x1="6.81175" y1="4.17302" x2="7.72011" y2="6.61859" gradientUnits="userSpaceOnUse">
<stop stop-color="#BB5D4C" stop-opacity="0"/>
<stop offset="0.1413" stop-color="#BB5D4C" stop-opacity="0.022"/>
<stop offset="0.2877" stop-color="#BB5D4C" stop-opacity="0.089"/>
<stop offset="0.4366" stop-color="#BB5D4C" stop-opacity="0.2"/>
<stop offset="0.5872" stop-color="#BB5D4C" stop-opacity="0.355"/>
<stop offset="0.739" stop-color="#BB5D4C" stop-opacity="0.556"/>
<stop offset="0.8898" stop-color="#BB5D4C" stop-opacity="0.797"/>
<stop offset="1" stop-color="#BB5D4C"/>
</linearGradient>
<linearGradient id="paint21_linear_1_2483" x1="6.65389" y1="3.28265" x2="5.9726" y2="6.06013" gradientUnits="userSpaceOnUse">
<stop stop-color="#BB5D4C" stop-opacity="0"/>
<stop offset="0.1413" stop-color="#BB5D4C" stop-opacity="0.022"/>
<stop offset="0.2877" stop-color="#BB5D4C" stop-opacity="0.089"/>
<stop offset="0.4366" stop-color="#BB5D4C" stop-opacity="0.2"/>
<stop offset="0.5872" stop-color="#BB5D4C" stop-opacity="0.355"/>
<stop offset="0.739" stop-color="#BB5D4C" stop-opacity="0.556"/>
<stop offset="0.8898" stop-color="#BB5D4C" stop-opacity="0.797"/>
<stop offset="1" stop-color="#BB5D4C"/>
</linearGradient>
<linearGradient id="paint22_linear_1_2483" x1="11.0329" y1="4.12196" x2="12.5876" y2="4.05211" gradientUnits="userSpaceOnUse">
<stop stop-color="#BB5D4C" stop-opacity="0"/>
<stop offset="0.1413" stop-color="#BB5D4C" stop-opacity="0.022"/>
<stop offset="0.2877" stop-color="#BB5D4C" stop-opacity="0.089"/>
<stop offset="0.4366" stop-color="#BB5D4C" stop-opacity="0.2"/>
<stop offset="0.5872" stop-color="#BB5D4C" stop-opacity="0.355"/>
<stop offset="0.739" stop-color="#BB5D4C" stop-opacity="0.556"/>
<stop offset="0.8898" stop-color="#BB5D4C" stop-opacity="0.797"/>
<stop offset="1" stop-color="#BB5D4C"/>
</linearGradient>
<linearGradient id="paint23_linear_1_2483" x1="6.69513" y1="11.1572" x2="6.69513" y2="13.2017" gradientUnits="userSpaceOnUse">
<stop stop-color="#BB5D4C" stop-opacity="0"/>
<stop offset="0.1413" stop-color="#BB5D4C" stop-opacity="0.022"/>
<stop offset="0.2877" stop-color="#BB5D4C" stop-opacity="0.089"/>
<stop offset="0.4366" stop-color="#BB5D4C" stop-opacity="0.2"/>
<stop offset="0.5872" stop-color="#BB5D4C" stop-opacity="0.355"/>
<stop offset="0.739" stop-color="#BB5D4C" stop-opacity="0.556"/>
<stop offset="0.8898" stop-color="#BB5D4C" stop-opacity="0.797"/>
<stop offset="1" stop-color="#BB5D4C"/>
</linearGradient>
<linearGradient id="paint24_linear_1_2483" x1="9.06857" y1="11.8452" x2="7.94912" y2="11.8953" gradientUnits="userSpaceOnUse">
<stop stop-color="#BB5D4C" stop-opacity="0"/>
<stop offset="0.1413" stop-color="#BB5D4C" stop-opacity="0.022"/>
<stop offset="0.2877" stop-color="#BB5D4C" stop-opacity="0.089"/>
<stop offset="0.4366" stop-color="#BB5D4C" stop-opacity="0.2"/>
<stop offset="0.5872" stop-color="#BB5D4C" stop-opacity="0.355"/>
<stop offset="0.739" stop-color="#BB5D4C" stop-opacity="0.556"/>
<stop offset="0.8898" stop-color="#BB5D4C" stop-opacity="0.797"/>
<stop offset="1" stop-color="#BB5D4C"/>
</linearGradient>
</defs>
</svg>
